<svg xmlns="http://www.w3.org/2000/svg" version="1.1" xmlns:xlink="http://www.w3.org/1999/xlink" xmlns:svgjs="http://svgjs.dev/svgjs" width="1000" height="623" viewBox="0 0 1000 623"><g transform="matrix(1,0,0,1,-0.6060606060606233,0.2522267206477409)"><svg viewBox="0 0 396 247" data-background-color="#2979ff" preserveAspectRatio="xMidYMid meet" height="623" width="1000" xmlns="http://www.w3.org/2000/svg" xmlns:xlink="http://www.w3.org/1999/xlink"><g id="tight-bounds" transform="matrix(1,0,0,1,0.2400000000000091,-0.09999999999999432)"><svg viewBox="0 0 395.52 247.2" height="247.2" width="395.52"><g><svg></svg></g><g><svg viewBox="0 0 395.52 247.2" height="247.2" width="395.52"><g transform="matrix(1,0,0,1,39.55199999999999,103.80388199389623)"><svg viewBox="0 0 316.416 39.59223601220752" height="39.59223601220752" width="316.416"><g><svg viewBox="0 0 316.416 39.59223601220752" height="39.59223601220752" width="316.416"><g><svg viewBox="0 0 316.416 39.59223601220752" height="39.59223601220752" width="316.416"><g id="textblocktransform"><svg viewBox="0 0 316.416 39.59223601220752" height="39.59223601220752" width="316.416" id="textblock"><g><svg viewBox="0 0 316.416 39.59223601220752" height="39.59223601220752" width="316.416"><g transform="matrix(1,0,0,1,0,0)"><svg width="316.416" viewBox="1.75 -36.400001525878906 294.8699951171875 36.900001525878906" height="39.59223601220752" data-palette-color="#ffffff"><path d="M21.75-24.15L21.75-24.6Q21.75-26.5 20.25-27.58 18.75-28.65 16.1-28.65L16.1-28.65Q13.35-28.65 11.83-27.78 10.3-26.9 10.3-25.45L10.3-25.45Q10.3-24.2 11.25-23.38 12.2-22.55 13.68-22.05 15.15-21.55 17.7-20.95L17.7-20.95Q21.45-20.05 23.88-19.1 26.3-18.15 28.03-16.15 29.75-14.15 29.75-10.8L29.75-10.8Q29.75-4.95 25.98-2.23 22.2 0.5 15.6 0.5L15.6 0.5Q9.6 0.5 5.68-2.13 1.75-4.75 1.75-10.1L1.75-10.1 1.8-11.2 9.1-11.2 9.05-10.4Q9.05-8.2 10.7-6.93 12.35-5.65 15.35-5.65L15.35-5.65Q18.85-5.65 20.38-6.75 21.9-7.85 21.9-9.55L21.9-9.55Q21.9-10.85 20.98-11.68 20.05-12.5 18.63-12.98 17.2-13.45 14.65-14.05L14.65-14.05Q10.85-15 8.45-15.95 6.05-16.9 4.3-19 2.55-21.1 2.55-24.65L2.55-24.65Q2.55-27.95 4.35-30.25 6.15-32.55 9.18-33.68 12.2-34.8 15.95-34.8L15.95-34.8Q21.7-34.8 25.35-32.27 29-29.75 29-24.75L29-24.75 29-24.15 21.75-24.15ZM58.75-9.55Q58.75-6.2 57.15-3.93 55.55-1.65 52.92-0.58 50.3 0.5 47.2 0.5L47.2 0.5 46.4 0.5Q42.85 0.5 40-1 37.15-2.5 35.52-5.33 33.9-8.15 33.9-12.05L33.9-12.05 33.9-13.5Q33.9-17.35 35.55-20.2 37.2-23.05 40.02-24.55 42.85-26.05 46.4-26.05L46.4-26.05 47.2-26.05Q50.3-26.05 52.95-24.78 55.6-23.5 57.2-21.08 58.8-18.65 58.8-15.35L58.8-15.35 58.8-11.55 41.3-11.55 41.3-10.35Q41.3-7.85 42.77-6.18 44.25-4.5 46.8-4.5L46.8-4.5Q49.1-4.5 50.42-5.78 51.75-7.05 51.75-9.55L51.75-9.55 58.75-9.55ZM46.45-21.05Q44.25-21.05 42.87-19.5 41.5-17.95 41.3-15.55L41.3-15.55 51.4-15.55Q51.4-18.1 50.22-19.58 49.05-21.05 46.45-21.05L46.45-21.05ZM79.9-17.25Q79.9-18.95 78.82-20 77.75-21.05 75.35-21.05L75.35-21.05Q73.95-21.05 72.95-20.58 71.95-20.1 71.42-19.4 70.9-18.7 70.9-18.1L70.9-18.1 70.9-17.7 63.85-17.7Q63.75-18.3 63.75-18.6L63.75-18.6Q63.75-20.75 65.17-22.45 66.6-24.15 69.15-25.1 71.7-26.05 75-26.05L75-26.05 76.05-26.05Q81.45-26.05 84.25-23.93 87.05-21.8 87.05-18.1L87.05-18.1 87.05-6.3Q87.05-5.4 87.47-4.95 87.9-4.5 88.5-4.5L88.5-4.5Q89-4.5 89.6-4.7 90.2-4.9 90.55-5.05L90.55-5.05 90.55-0.55Q88.7 0.5 86.15 0.5L86.15 0.5Q83.4 0.5 81.95-0.63 80.5-1.75 80.25-3.8L80.25-3.8Q76.75 0.5 71.65 0.5L71.65 0.5Q67.85 0.5 65.4-1.05 62.95-2.6 62.95-6.95L62.95-6.95Q62.95-10.5 64.97-12.38 67-14.25 70.6-14.9 74.2-15.55 79.9-15.55L79.9-15.55 79.9-17.25ZM79.9-11.45Q75.15-11.45 72.82-10.53 70.5-9.6 70.5-7.5L70.5-7.5Q70.5-5.85 71.42-5.18 72.35-4.5 74.25-4.5L74.25-4.5Q75.55-4.5 76.85-5.2 78.15-5.9 79.02-7.2 79.9-8.5 79.9-10.1L79.9-10.1 79.9-11.45ZM129.79-12.05Q129.79-8.2 128.17-5.35 126.54-2.5 123.69-1 120.84 0.5 117.29 0.5L117.29 0.5 116.49 0.5Q112.94 0.5 110.09-1 107.24-2.5 105.62-5.35 103.99-8.2 103.99-12.05L103.99-12.05 103.99-13.5Q103.99-17.35 105.62-20.2 107.24-23.05 110.09-24.55 112.94-26.05 116.49-26.05L116.49-26.05 117.29-26.05Q120.84-26.05 123.69-24.55 126.54-23.05 128.17-20.2 129.79-17.35 129.79-13.5L129.79-13.5 129.79-12.05ZM122.39-14.8Q122.39-17.85 120.87-19.45 119.34-21.05 116.89-21.05L116.89-21.05Q114.44-21.05 112.92-19.45 111.39-17.85 111.39-14.8L111.39-14.8 111.39-10.75Q111.39-7.7 112.92-6.1 114.44-4.5 116.89-4.5L116.89-4.5Q119.34-4.5 120.87-6.1 122.39-7.7 122.39-10.75L122.39-10.75 122.39-14.8ZM149.44-30.9Q148.79-31.1 147.84-31.28 146.89-31.45 146.34-31.45L146.34-31.45Q145.14-31.45 144.31-30.85 143.49-30.25 143.49-28.45L143.49-28.45 143.49-25.55 149.44-25.55 149.44-20.55 143.49-20.55 143.49 0 136.19 0 136.19-20.55 133.19-20.55 133.19-25.55 136.19-25.55 136.19-28.9Q136.19-36.4 143.89-36.4L143.89-36.4Q145.14-36.4 146.79-36.1 148.44-35.8 149.44-35.35L149.44-35.35 149.44-30.9ZM187.88-34.3L187.08-28.15 172.28-28.15 172.28-19.95 185.58-19.95 185.58-13.8 172.28-13.8 172.28 0 164.68 0 164.68-34.3 187.88-34.3ZM216.68-28.1L206.98-28.1 206.98 0 199.33 0 199.33-28.1 189.58-28.1 189.58-34.3 216.68-34.3 216.68-28.1ZM236.03-17.25Q236.03-18.95 234.95-20 233.88-21.05 231.48-21.05L231.48-21.05Q230.08-21.05 229.08-20.58 228.08-20.1 227.55-19.4 227.03-18.7 227.03-18.1L227.03-18.1 227.03-17.7 219.98-17.7Q219.88-18.3 219.88-18.6L219.88-18.6Q219.88-20.75 221.3-22.45 222.73-24.15 225.28-25.1 227.83-26.05 231.13-26.05L231.13-26.05 232.18-26.05Q237.58-26.05 240.38-23.93 243.18-21.8 243.18-18.1L243.18-18.1 243.18-6.3Q243.18-5.4 243.6-4.95 244.03-4.5 244.63-4.5L244.63-4.5Q245.13-4.5 245.73-4.7 246.33-4.9 246.68-5.05L246.68-5.05 246.68-0.55Q244.83 0.5 242.28 0.5L242.28 0.5Q239.53 0.5 238.08-0.63 236.63-1.75 236.38-3.8L236.38-3.8Q232.88 0.5 227.78 0.5L227.78 0.5Q223.98 0.5 221.53-1.05 219.08-2.6 219.08-6.95L219.08-6.95Q219.08-10.5 221.1-12.38 223.13-14.25 226.73-14.9 230.33-15.55 236.03-15.55L236.03-15.55 236.03-17.25ZM236.03-11.45Q231.28-11.45 228.95-10.53 226.63-9.6 226.63-7.5L226.63-7.5Q226.63-5.85 227.55-5.18 228.48-4.5 230.38-4.5L230.38-4.5Q231.68-4.5 232.98-5.2 234.28-5.9 235.15-7.2 236.03-8.5 236.03-10.1L236.03-10.1 236.03-11.45ZM264.63-15.65L264.63-16.8Q264.63-18.35 263.78-19.48 262.93-20.6 261.08-20.6L261.08-20.6Q259.33-20.6 258.4-19.23 257.48-17.85 257.48-15.8L257.48-15.8 257.48 0 250.28 0 250.28-25.55 255.68-25.55 256.58-21.8Q256.78-22.35 257.6-23.35 258.43-24.35 260-25.2 261.58-26.05 263.73-26.05L263.73-26.05Q267.18-26.05 269.05-23.9 270.93-21.75 270.93-18.2L270.93-18.2Q270.93-17.45 270.85-16.7 270.78-15.95 270.73-15.65L270.73-15.65 264.63-15.65ZM279.32-8.15L279.32-7.8Q279.32-6.05 280.87-5.28 282.42-4.5 284.72-4.5L284.72-4.5Q286.72-4.5 288.3-5.1 289.87-5.7 289.87-7L289.87-7Q289.87-8.4 288.42-9 286.97-9.6 283.92-10.05L283.92-10.05Q280.72-10.6 278.67-11.25 276.62-11.9 275.15-13.5 273.67-15.1 273.67-17.95L273.67-17.95Q273.67-20.55 275.2-22.38 276.72-24.2 279.25-25.13 281.77-26.05 284.77-26.05L284.77-26.05 285.77-26.05Q288.42-26.05 290.8-25.18 293.17-24.3 294.62-22.73 296.07-21.15 296.07-19.15L296.07-19.15Q296.07-18.75 296.02-18.43 295.97-18.1 295.97-18.05L295.97-18.05 289.57-18.05Q289.57-21.05 284.97-21.05L284.97-21.05Q282.87-21.05 281.6-20.45 280.32-19.85 280.32-18.8L280.32-18.8Q280.32-17.55 281.7-17.05 283.07-16.55 286.02-16.1L286.02-16.1Q289.37-15.55 291.45-14.93 293.52-14.3 295.07-12.68 296.62-11.05 296.62-8.1L296.62-8.1Q296.62-3.55 293.42-1.53 290.22 0.5 285.27 0.5L285.27 0.5 283.62 0.5Q280.52 0.5 278.07-0.45 275.62-1.4 274.25-3.15 272.87-4.9 272.87-7.15L272.87-7.15 272.92-8.15 279.32-8.15Z" opacity="1" transform="matrix(1,0,0,1,0,0)" fill="#ffffff" class="wordmark-text-0" data-fill-palette-color="primary" id="text-0"></path></svg></g></svg></g></svg></g></svg></g><g></g></svg></g></svg></g><g mask="url(&quot;#c74b7632-ea25-430d-ae0b-e4de7c727a03&quot;)"><g transform="matrix(3.073826827966394, 0, 0, 3.073826827966394, 75.16148916628704, 1)"><svg xmlns="http://www.w3.org/2000/svg" xmlns:xlink="http://www.w3.org/1999/xlink" version="1.1" x="0" y="0" viewBox="5.412825107574463 5.195577621459961 79.76930236816406 79.77027130126953" enable-background="new 0 0 90 90" xml:space="preserve" height="79.77027130126953" width="79.76930236816406" class="icon-none" data-fill-palette-color="accent" id="none"><path d="M54.624 83.27c-10.792 1.801-22.246-1.411-30.727-8.272-8.062-6.522-13.088-16.744-12.728-27.17 0.349-10.096 5.499-20.182 14.078-25.707 8.769-5.647 20.783-5.62 29.498 0.129 8.154 5.379 12.661 15.857 9.907 25.391-1.424 4.931-4.572 9.475-9.052 12.082-4.663 2.714-10.561 3.268-15.615 1.341-4.544-1.733-8.418-5.448-9.851-10.154-1.47-4.826-0.243-10.416 3.327-14.027 3.452-3.492 8.998-4.743 13.484-2.567 4.259 2.065 6.884 7.148 5.307 11.755-0.85 2.483-2.859 4.611-5.423 5.317-2.69 0.741-5.774-0.221-7.439-2.493-1.629-2.222-1.495-5.503 0.597-7.389 1.054-0.95 2.599-1.429 3.984-1.015 0.41 0.122 2.233 0.566 2.058 1.209 0.087-0.652-1.341-0.82-1.755-0.934-1.29-0.356-2.733 0.004-3.719 0.904-1.739 1.586-1.995 4.459-0.597 6.34 1.417 1.906 4.102 2.721 6.348 1.971 2.287-0.765 3.875-3.013 4.245-5.344 0.746-4.703-3.812-8.759-8.323-8.569-4.774 0.201-8.548 4.373-9.111 8.971-1.056 8.621 8.8 14.488 16.466 12.536 8.546-2.177 12.86-12.372 10.766-20.465-2.34-9.045-11.891-14.664-20.877-14.543-9.785 0.131-18.28 7.23-21.955 16.011-4.038 9.649-2.194 21.17 4.201 29.364 6.485 8.309 16.93 13.113 27.352 13.664 5.766 0.305 11.749-0.537 17.004-3.006 4.955-2.328 8.907-6.258 11.976-10.734 6.303-9.194 8.662-20.938 6.135-31.824C79.845 17.355 61.052 3.689 41.936 5.329 23.164 6.939 7.154 22.991 5.551 41.756c-0.918 10.74 2.777 21.76 9.928 29.817 7.078 7.976 17.424 12.875 28.071 13.353 6.118 0.275 12.303-0.876 17.903-3.359-2.472 0.844-4.993 1.695-7.622 1.838 0.506-0.028 0.982-0.246 1.492-0.242-1.79-0.014-3.465 0.776-5.242 0.87 1.034-0.055 2.103-0.271 3.095-0.566 0.337-0.101 1.458-0.578 1.755-0.242-0.207-0.235-1.358 0.182-1.613 0.243-0.926 0.221-1.953 0.452-2.902 0.51 0.426-0.026 4.536-0.711 4.53-0.755 0.008 0.065-4.022 0.607-4.613 0.769 0.714-0.196 1.505-0.245 2.235-0.367 0.292-0.048 2.164-0.591 2.374-0.402C54.91 83.194 54.661 83.264 54.624 83.27 43.928 85.055 57.114 82.88 54.624 83.27z" fill="#ffffff" data-fill-palette-color="accent"></path></svg></g></g></svg></g><defs><mask id="c74b7632-ea25-430d-ae0b-e4de7c727a03"><rect width="640" height="400" fill="white"></rect><rect width="348.05760000000004" height="58.285789429843334" fill="black" y="94.45710528507833" x="23.731199999999973" id="transform-me"></rect></mask></defs></svg><rect width="395.52" height="247.2" fill="none" stroke="none" visibility="hidden"></rect></g></svg></g></svg>